<svg width="40" height="40" viewBox="0 0 40 40" fill="none" xmlns="http://www.w3.org/2000/svg">
<g id="plus">
<path id="Vector" d="M20.2501 18.7498V19.7498H21.2501H28.3334C28.3997 19.7498 28.4633 19.7762 28.5102 19.8231C28.5571 19.8699 28.5834 19.9335 28.5834 19.9998C28.5834 20.0661 28.5571 20.1297 28.5102 20.1766C28.4633 20.2235 28.3997 20.2498 28.3334 20.2498H21.2501H20.2501V21.2498V28.3332C20.2501 28.3995 20.2237 28.4631 20.1769 28.5099C20.13 28.5568 20.0664 28.5832 20.0001 28.5832C19.9338 28.5832 19.8702 28.5568 19.8233 28.5099C19.7764 28.4631 19.7501 28.3995 19.7501 28.3332V21.2498V20.2498H18.7501H11.6667C11.6004 20.2498 11.5369 20.2235 11.49 20.1766C11.4431 20.1297 11.4167 20.0661 11.4167 19.9998C11.4167 19.9335 11.4431 19.8699 11.49 19.8231C11.5369 19.7762 11.6004 19.7498 11.6667 19.7498H18.7501H19.7501V18.7498V11.6665C19.7501 11.6002 19.7764 11.5366 19.8233 11.4897C19.8702 11.4428 19.9338 11.4165 20.0001 11.4165C20.0664 11.4165 20.13 11.4428 20.1769 11.4897C20.2237 11.5366 20.2501 11.6002 20.2501 11.6665V18.7498Z" stroke="#1E231E" stroke-width="2"/>
</g>
</svg>
