<svg width="108" height="32" viewBox="0 0 108 32" fill="none" xmlns="http://www.w3.org/2000/svg">
<path d="M10.1429 28L9.45012 28.5048L10.1429 29.4555L10.8356 28.5048L10.1429 28ZM10.1429 28C10.8356 28.5048 10.8357 28.5047 10.8358 28.5046L10.8362 28.5041L10.8375 28.5023L10.8423 28.4957L10.8605 28.4705L10.9303 28.3738C10.991 28.2892 11.0797 28.1653 11.1923 28.0063C11.4174 27.6883 11.7384 27.2299 12.1232 26.6658C12.8924 25.5384 13.9193 23.9854 14.9476 22.2861C15.9742 20.5897 17.0113 18.7325 17.7945 16.9994C18.5629 15.2989 19.1429 13.6003 19.1429 12.2623C19.1429 7.23754 15.1251 3.14279 10.1429 3.14279C5.16057 3.14279 1.14286 7.23754 1.14286 12.2623C1.14286 13.6003 1.72281 15.2989 2.49123 16.9994C3.27443 18.7325 4.31155 20.5897 5.3381 22.2861C6.36639 23.9854 7.39332 25.5384 8.16248 26.6658C8.54733 27.2299 8.86828 27.6883 9.09342 28.0063C9.20601 28.1653 9.29468 28.2892 9.35545 28.3738L9.42519 28.4705L9.44344 28.4957L9.44825 28.5023L9.44956 28.5041L9.44993 28.5046C9.45004 28.5047 9.45012 28.5048 10.1429 28Z" stroke="url(#paint0_linear_1069_6043)" stroke-width="1.71429"/>
<ellipse cx="10" cy="12.1435" rx="3" ry="3.00001" fill="url(#paint1_linear_1069_6043)"/>
<path d="M27.517 25V7.54545H39.0739V10.5881H31.2074V14.7472H38.3068V17.7898H31.2074V25H27.517ZM41.4879 25V11.9091H45.1186V25H41.4879ZM43.3118 10.2216C42.772 10.2216 42.3089 10.0426 41.9226 9.68466C41.5419 9.32102 41.3516 8.88636 41.3516 8.38068C41.3516 7.88068 41.5419 7.4517 41.9226 7.09375C42.3089 6.73011 42.772 6.54829 43.3118 6.54829C43.8516 6.54829 44.3118 6.73011 44.6925 7.09375C45.0788 7.4517 45.272 7.88068 45.272 8.38068C45.272 8.88636 45.0788 9.32102 44.6925 9.68466C44.3118 10.0426 43.8516 10.2216 43.3118 10.2216ZM51.6577 17.4318V25H48.027V11.9091H51.4872V14.2188H51.6406C51.9304 13.4574 52.4162 12.8551 53.098 12.4119C53.7798 11.9631 54.6065 11.7386 55.5781 11.7386C56.4872 11.7386 57.2798 11.9375 57.956 12.3352C58.6321 12.733 59.1577 13.3011 59.5327 14.0398C59.9077 14.7727 60.0952 15.6477 60.0952 16.6648V25H56.4645V17.3125C56.4702 16.5114 56.2656 15.8864 55.8509 15.4375C55.4361 14.983 54.8651 14.7557 54.1378 14.7557C53.6491 14.7557 53.2173 14.8608 52.8423 15.071C52.473 15.2812 52.1832 15.5881 51.973 15.9915C51.7685 16.3892 51.6634 16.8693 51.6577 17.4318ZM67.7805 25.2131C66.7862 25.2131 65.8857 24.9574 65.0788 24.446C64.2777 23.929 63.6413 23.1705 63.1697 22.1705C62.7038 21.1648 62.4709 19.9318 62.4709 18.4716C62.4709 16.9716 62.7124 15.7244 63.1953 14.7301C63.6783 13.7301 64.3203 12.983 65.1214 12.4886C65.9283 11.9886 66.8118 11.7386 67.772 11.7386C68.505 11.7386 69.1158 11.8636 69.6044 12.1136C70.0987 12.358 70.4964 12.6648 70.7976 13.0341C71.1044 13.3977 71.3374 13.7557 71.4964 14.108H71.6072V7.54545H75.2294V25H71.6499V22.9034H71.4964C71.326 23.267 71.0845 23.6278 70.772 23.9858C70.4652 24.3381 70.0646 24.6307 69.5703 24.8636C69.0817 25.0966 68.4851 25.2131 67.7805 25.2131ZM68.9311 22.3239C69.5163 22.3239 70.0107 22.1648 70.4141 21.8466C70.8232 21.5227 71.1357 21.071 71.3516 20.4915C71.5732 19.9119 71.6839 19.233 71.6839 18.4545C71.6839 17.6761 71.576 17 71.3601 16.4261C71.1442 15.8523 70.8317 15.4091 70.4226 15.0966C70.0135 14.7841 69.5163 14.6278 68.9311 14.6278C68.3345 14.6278 67.8317 14.7898 67.4226 15.1136C67.0135 15.4375 66.7038 15.8864 66.4936 16.4602C66.2834 17.0341 66.1783 17.6989 66.1783 18.4545C66.1783 19.2159 66.2834 19.8892 66.4936 20.4744C66.7095 21.054 67.0192 21.5085 67.4226 21.8381C67.8317 22.1619 68.3345 22.3239 68.9311 22.3239ZM78.1804 25V22.3409L84.3935 16.5881C84.9219 16.0767 85.3651 15.6165 85.723 15.2074C86.0866 14.7983 86.3622 14.3977 86.5497 14.0057C86.7372 13.608 86.831 13.179 86.831 12.7188C86.831 12.2074 86.7145 11.767 86.4815 11.3977C86.2486 11.0227 85.9304 10.7358 85.527 10.5369C85.1236 10.3324 84.6662 10.2301 84.1548 10.2301C83.6207 10.2301 83.1548 10.3381 82.7571 10.554C82.3594 10.7699 82.0526 11.0795 81.8366 11.483C81.6207 11.8864 81.5128 12.3665 81.5128 12.9233H78.0099C78.0099 11.7812 78.2685 10.7898 78.7855 9.94886C79.3026 9.10795 80.027 8.45739 80.9588 7.99716C81.8906 7.53693 82.9645 7.30682 84.1804 7.30682C85.4304 7.30682 86.5185 7.52841 87.4446 7.97159C88.3764 8.40909 89.1009 9.01705 89.6179 9.79545C90.1349 10.5739 90.3935 11.4659 90.3935 12.4716C90.3935 13.1307 90.2628 13.7812 90.0014 14.4233C89.7457 15.0653 89.2884 15.7784 88.6293 16.5625C87.9702 17.3409 87.0412 18.2756 85.8423 19.3665L83.294 21.8636V21.983H90.6236V25H78.1804ZM92.6584 21.9318V19.0256L99.9453 7.54545H102.451V11.5682H100.968L96.3743 18.8381V18.9744H106.729V21.9318H92.6584ZM101.036 25V21.0455L101.104 19.7585V7.54545H104.565V25H101.036Z" fill="#11AB20"/>
<defs>
<linearGradient id="paint0_linear_1069_6043" x1="10.1429" y1="3.99994" x2="10.1429" y2="28" gradientUnits="userSpaceOnUse">
<stop stop-color="#11AB20"/>
<stop offset="1" stop-color="#25B833"/>
</linearGradient>
<linearGradient id="paint1_linear_1069_6043" x1="10" y1="9.14349" x2="10" y2="15.1435" gradientUnits="userSpaceOnUse">
<stop stop-color="#11AB20"/>
<stop offset="1" stop-color="#25B833"/>
</linearGradient>
</defs>
</svg>
